<svg width="80" height="30" viewBox="0 0 80 30" fill="none" xmlns="http://www.w3.org/2000/svg">
  <path d="M28.9 0.7C27.5 0.7 26.2 1.2 25.2 2.2C24.2 3.2 23.7 4.5 23.7 5.9V24.1C23.7 25.5 24.2 26.8 25.2 27.8C26.2 28.8 27.5 29.3 28.9 29.3H74.8C76.2 29.3 77.5 28.8 78.5 27.8C79.5 26.8 80 25.5 80 24.1V5.9C80 4.5 79.5 3.2 78.5 2.2C77.5 1.2 76.2 0.7 74.8 0.7H28.9Z" fill="#3B82F6"/>
  <path d="M14.5 0.7C13.1 0.7 11.8 1.2 10.8 2.2C9.8 3.2 9.3 4.5 9.3 5.9V24.1C9.3 25.5 9.8 26.8 10.8 27.8C11.8 28.8 13.1 29.3 14.5 29.3H19.3C20.7 29.3 22 28.8 23 27.8C24 26.8 24.5 25.5 24.5 24.1V5.9C24.5 4.5 24 3.2 23 2.2C22 1.2 20.7 0.7 19.3 0.7H14.5Z" fill="#3B82F6"/>
  <path d="M5.2 0.7C3.8 0.7 2.5 1.2 1.5 2.2C0.5 3.2 0 4.5 0 5.9V24.1C0 25.5 0.5 26.8 1.5 27.8C2.5 28.8 3.8 29.3 5.2 29.3H9.3C10.7 29.3 12 28.8 13 27.8C14 26.8 14.5 25.5 14.5 24.1V5.9C14.5 4.5 14 3.2 13 2.2C12 1.2 10.7 0.7 9.3 0.7H5.2Z" fill="#3B82F6"/>
  <path d="M40.5 10.5C40.5 9.4 41.4 8.5 42.5 8.5H65.5C66.6 8.5 67.5 9.4 67.5 10.5C67.5 11.6 66.6 12.5 65.5 12.5H42.5C41.4 12.5 40.5 11.6 40.5 10.5Z" fill="white"/>
  <path d="M40.5 19.5C40.5 18.4 41.4 17.5 42.5 17.5H65.5C66.6 17.5 67.5 18.4 67.5 19.5C67.5 20.6 66.6 21.5 65.5 21.5H42.5C41.4 21.5 40.5 20.6 40.5 19.5Z" fill="white"/>
</svg>
